<svg width="16" height="16" viewBox="0 0 16 16" fill="none" xmlns="http://www.w3.org/2000/svg">
<path fill-rule="evenodd" clip-rule="evenodd" d="M1 1H15V15H1V1ZM0 0H1H15H16V1V15V16H15H1H0V15V1V0ZM11.924 7.26997C11.3491 7.31559 10.867 7.52244 10.508 7.87833C10.1384 8.24487 9.96202 8.69202 9.96202 9.25932C9.96202 10.108 10.3103 10.7011 11.0875 11.1711C11.2852 11.2897 11.5544 11.419 12.0198 11.6198C12.654 11.892 12.8898 12.0213 13.0403 12.1825C13.2259 12.3818 13.2776 12.6996 13.1605 12.943C13.1377 12.9901 13.0784 13.0692 13.0251 13.1224C12.8457 13.3034 12.5628 13.3992 12.2115 13.3992C11.6183 13.3992 11.1757 13.1559 10.8198 12.6297C10.7711 12.5597 10.727 12.5019 10.721 12.5019C10.7073 12.5019 9.54986 13.1696 9.52552 13.1924C9.51031 13.2061 9.52248 13.238 9.58179 13.3354C10.0442 14.1141 10.7666 14.5703 11.743 14.7011C11.9985 14.7361 12.4776 14.7346 12.7225 14.7011C13.3369 14.6145 13.7978 14.4107 14.1552 14.0639C14.5354 13.6973 14.7225 13.2228 14.7225 12.6281C14.7225 12.2479 14.6601 11.9513 14.5187 11.6578C14.4213 11.457 14.324 11.3217 14.1567 11.1513C13.8358 10.8259 13.4206 10.5795 12.5917 10.2236C11.9651 9.95438 11.7552 9.83879 11.6168 9.69126C11.4845 9.54982 11.4282 9.38404 11.4403 9.17719C11.451 9.01293 11.4966 8.90191 11.597 8.79392C11.7415 8.63727 11.9088 8.57187 12.1673 8.57339C12.4609 8.57339 12.651 8.64944 12.8442 8.84411C12.9126 8.91103 13.0008 9.01902 13.0419 9.08442C13.089 9.15894 13.124 9.20001 13.1362 9.19544C13.1757 9.17871 14.2814 8.46388 14.2814 8.45324C14.2814 8.44715 14.2251 8.35894 14.1567 8.25552C14.0107 8.03651 13.7476 7.76274 13.5666 7.64259C13.232 7.42054 12.8746 7.30647 12.4031 7.27149C12.1719 7.25324 12.1415 7.25324 11.924 7.26997ZM7.1894 10.0335L7.18484 12.7224L7.15138 12.8487C7.10727 13.0145 7.05556 13.1133 6.9643 13.2046C6.83655 13.3323 6.67229 13.3856 6.39852 13.3871C6.00765 13.3886 5.77343 13.2228 5.50119 12.7574C5.45708 12.6844 5.41754 12.6251 5.41297 12.6266C5.40689 12.6297 5.1316 12.7954 4.80157 12.9947L4.20081 13.3597L4.24643 13.451C4.51868 13.9939 4.99016 14.4046 5.55746 14.5932C6.1567 14.7924 6.92628 14.7742 7.49054 14.5475C8.16735 14.2738 8.5643 13.708 8.66925 12.8669C8.67837 12.7818 8.68446 11.8312 8.68446 10.0426V7.34601H7.93921H7.19548L7.1894 10.0335Z" fill="#E0E0E0"/>
</svg>
